<?xml version="1.0" encoding="utf-8"?>
<!-- Generator: Adobe Illustrator 19.0.0, SVG Export Plug-In . SVG Version: 6.00 Build 0)  -->
<svg version="1.1" id="图层_1" xmlns="http://www.w3.org/2000/svg" xmlns:xlink="http://www.w3.org/1999/xlink" x="0px" y="0px"
	 viewBox="-575 337 128 128" style="enable-background:new -575 337 128 128;" xml:space="preserve">
<style type="text/css">
	.st0{fill-rule:evenodd;clip-rule:evenodd;fill:#333333;}
</style>
<g id="XMLID_428_">
	<path id="XMLID_429_" class="st0" d="M-455.3,438.5c0,11.3-28,17.2-55.7,17.2c-27.7,0-55.7-5.9-55.7-17.2c0-10,21.6-14.2,30.9-15.5
		c1.4-0.2,2.7,0.8,2.9,2.1s-0.8,2.7-2.1,2.9c-19.3,2.8-26.5,7.9-26.5,10.5c0,5,19.7,12.2,50.7,12.2c30.9,0,50.7-7.2,50.7-12.2
		c0-2.6-7.3-7.8-26.8-10.6c-1.4-0.2-2.3-1.5-2.2-2.9c0.2-1.4,1.5-2.3,2.8-2.2C-477.1,424.2-455.3,428.4-455.3,438.5L-455.3,438.5z
		 M-521.7,378.5c0-5.9,4.8-10.7,10.7-10.7c5.9,0,10.7,4.8,10.7,10.7c0,5.9-4.8,10.7-10.7,10.7C-516.9,389.2-521.7,384.4-521.7,378.5
		L-521.7,378.5z M-495.3,378.5c0-8.7-7.1-15.7-15.7-15.7c-8.7,0-15.7,7.1-15.7,15.7s7.1,15.7,15.7,15.7
		C-502.3,394.2-495.3,387.2-495.3,378.5L-495.3,378.5z M-511,351.4c15.5,0,28.2,12.6,28.2,28.2c0,21.5-21.8,45.7-28.2,52.3
		c-6.4-6.5-28.1-30.2-28.1-52.3C-539.2,364-526.5,351.4-511,351.4L-511,351.4z M-512.7,437.3l1.8,1.6l1.7-1.7
		c1.3-1.2,31.5-30.5,31.5-57.7c0-18.3-14.9-33.2-33.2-33.2c-18.3,0-33.2,14.9-33.2,33.2C-544.2,407.5-514,436.1-512.7,437.3
		L-512.7,437.3z"/>
</g>
</svg>
