<?xml version="1.0" encoding="utf-8"?>
<!-- Generator: Adobe Illustrator 19.0.0, SVG Export Plug-In . SVG Version: 6.00 Build 0)  -->
<svg version="1.1" id="图层_1" xmlns="http://www.w3.org/2000/svg" xmlns:xlink="http://www.w3.org/1999/xlink" x="0px" y="0px"
	 viewBox="-575 337 128 128" style="enable-background:new -575 337 128 128;" xml:space="preserve">
<style type="text/css">
	.st0{fill:#333333;}
</style>
<path class="st0" d="M-471.4,361.4c-21.9-21.9-57.3-21.9-79.2,0c-21.9,21.9-21.9,57.3,0,79.2c21.9,21.9,57.3,21.9,79.2,0
	C-449.6,418.7-449.6,383.3-471.4,361.4z M-462.2,403.8c-11-1.1-22.4,2.1-31.4,9.7l-12.5-12.5l32-32
	C-465.4,378.9-461.4,391.5-462.2,403.8z M-493.5,423.4L-479,438c-6.6,5.7-14.2,9.4-22.3,11C-502.1,440-499.6,430.8-493.5,423.4z
	 M-488.6,418.5c7.4-6,16.6-8.6,25.6-7.7c-1.6,8-5.3,15.7-11,22.3L-488.6,418.5z M-479,364l-32,32l-12.5-12.5
	c7.6-9,10.8-20.3,9.7-31.4C-501.5,351.4-488.9,355.4-479,364z M-533.4,383.5c-7.4,6-16.6,8.6-25.6,7.7c1.6-8,5.3-15.7,11-22.3
	L-533.4,383.5z M-543,364c6.6-5.7,14.2-9.4,22.3-11c0.9,9-1.7,18.2-7.7,25.6L-543,364z M-559.8,398.1c11,1.1,22.4-2.1,31.4-9.7
	l12.5,12.5l-32,32C-556.6,423.1-560.6,410.5-559.8,398.1z M-543,438l32-32l12.5,12.5c-7.6,9-10.8,20.3-9.7,31.4
	C-520.5,450.5-533.1,446.6-543,438z"/>
</svg>
