<?xml version="1.0" encoding="utf-8"?>
<!-- Generator: Adobe Illustrator 19.0.0, SVG Export Plug-In . SVG Version: 6.00 Build 0)  -->
<svg version="1.1" id="图层_1" xmlns="http://www.w3.org/2000/svg" xmlns:xlink="http://www.w3.org/1999/xlink" x="0px" y="0px"
	 viewBox="-575 337 128 128" style="enable-background:new -575 337 128 128;" xml:space="preserve">
<style type="text/css">
	.st0{fill-rule:evenodd;clip-rule:evenodd;fill:#333333;}
</style>
<g id="XMLID_402_">
	<path id="XMLID_407_" class="st0" d="M-511.7,450.3c-1.1,0-2.5-0.7-3.1-1.4l-11.9-12.2h-28.7c-6.3,0-11.5-4.9-11.5-11.6v-61.9
		c0-6.3,5.2-11.5,11.5-11.5h88.9c6.3,0,11.6,5.2,11.6,11.5v62.3c0,6.7-5.2,11.6-11.6,11.6c-1.8,0-2.8-1.1-2.8-2.8s1-2.8,2.8-2.8
		c2.8,0,5.6-2.8,5.6-5.6v-62.6c0-2.8-2.8-5.6-5.6-5.6h-88.9c-2.8,0-5.6,2.8-5.6,5.6v62.3c0,3.1,2.8,5.6,5.6,5.6h30.1
		c1,0,1.4,0.4,2.1,1.1l12.2,12.2l11.9-12.2c0.7-0.7,1.1-1.1,2.1-1.1h11.2c1.8,0,2.8,1.1,2.8,2.8c0,1.8-1.1,2.8-2.8,2.8H-496
		l-11.9,12.2C-508.9,449.6-510,450.3-511.7,450.3L-511.7,450.3z"/>
	<path id="XMLID_403_" class="st0" d="M-531.7,393.3c0,3.1-2.8,5.9-5.9,5.9c-3.2,0-6-2.8-6-5.9s2.8-6,6-6
		C-534.5,387.3-531.7,389.8-531.7,393.3L-531.7,393.3z M-505,392.9c0,3.1-2.8,6-6,6c-3.2,0-6-2.8-6-6s2.8-5.9,6-5.9
		C-507.9,387-505,389.8-505,392.9L-505,392.9z M-478.5,393.3c0,3.1-2.8,5.9-6,5.9c-3.1,0-5.9-2.8-5.9-5.9s2.8-6,5.9-6
		C-481.2,387.3-478.5,389.8-478.5,393.3L-478.5,393.3z"/>
</g>
</svg>
