<?xml version="1.0" encoding="utf-8"?>
<!-- Generator: Adobe Illustrator 19.0.0, SVG Export Plug-In . SVG Version: 6.00 Build 0)  -->
<svg version="1.1" id="图层_1" xmlns="http://www.w3.org/2000/svg" xmlns:xlink="http://www.w3.org/1999/xlink" x="0px" y="0px"
	 viewBox="-575 337 128 128" style="enable-background:new -575 337 128 128;" xml:space="preserve">
<style type="text/css">
	.st0{fill:#DDDDDD;}
</style>
<path class="st0" d="M-559.4,451.8h96.8c7.6,0,13.8-6.2,13.8-13.8v-63c0-7.6-6.2-13.8-13.8-13.8h-13.4c-0.3-0.8-1.7-4-2.4-5.4
	c-2-4.1-3.2-5.8-7.3-5.8h-50.2c-4,0-5.7,1.6-8.1,7.6c-0.5,1.4-1.4,3.1-1.6,3.7h-13.8c-7.5,0-13.6,6-13.8,13.4v63.8
	C-573,445.9-566.9,451.8-559.4,451.8z M-568.1,375.1L-568.1,375.1c0-4.8,3.9-8.7,8.7-8.7h14.9c1.8,0,2.5-0.8,2.9-1.7
	c0.7-1.6,1.2-2.8,1.7-3.9c0.3-0.6,0.5-1.2,0.8-1.9c0.1-0.1,0.1-0.3,0.2-0.5c0.5-1.2,1.3-3.2,3.1-3.2h50c1.6,0,2.1,1.2,2.6,2.3
	l0.1,0.2c0.3,0.7,0.8,1.7,1.3,2.8c0.8,1.8,1.6,3.7,1.9,4.3c0.4,1,1.4,1.7,2.4,1.7h15c4.8,0,8.7,3.9,8.7,8.7v63
	c0,4.8-3.9,8.7-8.7,8.7h-96.8c-4.8,0-8.7-3.9-8.7-8.7V375.1z"/>
<path class="st0" d="M-511,434.9c15.6,0,28.3-12.7,28.3-28.3c0-15.6-12.7-28.3-28.3-28.3c-15.6,0-28.3,12.7-28.3,28.3
	C-539.3,422.2-526.6,434.9-511,434.9z M-511,383.2c12.9,0,23.4,10.5,23.4,23.4c0,12.9-10.5,23.4-23.4,23.4
	c-12.9,0-23.4-10.5-23.4-23.4C-534.4,393.7-523.9,383.2-511,383.2z"/>
<path class="st0" d="M-474.6,383.4h6.3c1.4,0,2.5-1.1,2.5-2.5c0-1.4-1.1-2.5-2.5-2.5h-6.3c-1.4,0-2.5,1.1-2.5,2.5
	C-477.1,382.3-476,383.4-474.6,383.4z"/>
</svg>
