<?xml version="1.0" encoding="utf-8"?>
<!-- Generator: Adobe Illustrator 19.0.0, SVG Export Plug-In . SVG Version: 6.00 Build 0)  -->
<svg version="1.1" id="图层_1" xmlns="http://www.w3.org/2000/svg" xmlns:xlink="http://www.w3.org/1999/xlink" x="0px" y="0px"
	 viewBox="-575 337 128 128" style="enable-background:new -575 337 128 128;" xml:space="preserve">
<style type="text/css">
	.st0{fill:#333333;}
</style>
<path class="st0" d="M-555.1,456h12.5l2.7-4.6h-11.8L-555.1,456z M-527.8,430.6h-8.9l-3.4,4.6h9.5L-527.8,430.6z M-539.9,456h13.7
	l1.2-4.6h-12.1L-539.9,456z M-533.2,444.5l-2.7,4.6h11.4l1.2-4.6H-533.2z M-550.1,449.1h11.5l2.7-4.6h-10.8L-550.1,449.1z
	 M-523.9,456h12.7v-4.6h-11.5L-523.9,456z M-547.6,436.1c-9-9.2-14.5-21.7-14.5-35.6c0-28.1,22.8-50.9,50.9-50.9
	c28.1,0,50.9,22.8,50.9,50.9c0,13.3-5.1,25.4-13.4,34.4l2.6,4c9.6-10,15.5-23.5,15.5-38.5c0-30.7-24.9-55.5-55.5-55.5
	c-30.7,0-55.5,24.9-55.5,55.5c0,15.4,6.3,29.3,16.4,39.4L-547.6,436.1z M-531.8,437.5h-9.8l-3.4,4.6h10.5L-531.8,437.5z
	 M-476.1,442.2l-2.9-4.6h-7.7l2.3,4.6H-476.1z M-471.6,449.1l-2.9-4.6h-8.7l2.3,4.6H-471.6z M-490.2,430.6l2.3,4.6h7.4l-2.9-4.6
	H-490.2z M-508.9,451.4v4.6h12.7l-1.2-4.6H-508.9z M-485.9,444.5h-10.7l1.2,4.6h11.8L-485.9,444.5z M-522.1,449.1h11v-4.6h-9.8
	L-522.1,449.1z M-494.7,451.4l1.2,4.6h13.5l-2.3-4.6H-494.7z M-508.9,449.1h11l-1.2-4.6h-9.8L-508.9,449.1L-508.9,449.1z
	 M-479.8,451.4l2.3,4.6h10.2l-2.9-4.6H-479.8z M-508.9,430.6v4.6h7.5l-1.2-4.6H-508.9z M-520.4,442.2h9.2v-4.6h-8.1L-520.4,442.2z
	 M-508.9,442.2h9.2l-1.2-4.6h-8.1V442.2z M-506.5,417.7c1.4-8,4.3-2.8,5.3,1.7c0.7,3,1.4,8.1,1.7,11.2h-0.7l1.1,4.2
	c0.1,1.1,0.4,2.1,0.8,2.8h-0.1l1.2,4.6h10.1l-2.3-4.6h-0.6c0.2-0.8-0.3-1.6-0.9-2.3h0.4l-2.3-4.6h-0.6c0.8-6.1,0.3-17.3-2.8-23.1
	c-3.7-6.7-6.7-12-6.7-12c3.4-0.7,8.1-6.8,8.1-6.8s6.6-8.7,4.5-11.3c-2.2-2.6-4.6,0-4.6,0s-1.7,3.4-5.2,7.9c-3.4,4.3-6.8,4.4-8.8,4
	c1.3-1.5,2.2-3.5,2.2-5.7c0-4.7-3.8-8.5-8.5-8.5s-8.5,3.8-8.5,8.5c0,4,2.8,7.4,6.6,8.3l-0.3,0.2c-2.4,1.1-3.2,3.3-6.8,4.8
	c-3.6,1.5-3.7-4.9-3.7-4.9c0.7-3.4-7.4-5.7-6.1,1.7c1.9,10.5,7,10.8,8.7,10.3c0.5-0.1,2-0.6,3.3-0.9c0.7-0.1,1.8-0.4,3.2,0.8
	c4,3.4,5.1,5.7,3.8,13.7c-1.3,8-4.5,8.1-8.5,11.9c-0.3,0.3-0.7,0.6-1,1h-0.4l-1,1.6c-0.5,0.8-1,1.5-1.3,2.2l-0.5,0.8h0.2
	c-0.3,1-0.2,1.8,0.4,2.3h-1.9l-2.7,4.6h9l1.2-4.6h-1.2c1.8-0.9,3.4-2.7,4.6-4.1l-0.4,1.7h7.5v-4.6h-3.6
	C-511.3,428.8-507.7,424.5-506.5,417.7z"/>
</svg>
