<?xml version="1.0" encoding="utf-8"?>
<!-- Generator: Adobe Illustrator 19.0.0, SVG Export Plug-In . SVG Version: 6.00 Build 0)  -->
<svg version="1.1" id="图层_1" xmlns="http://www.w3.org/2000/svg" xmlns:xlink="http://www.w3.org/1999/xlink" x="0px" y="0px"
	 viewBox="-575 337 128 128" style="enable-background:new -575 337 128 128;" xml:space="preserve">
<style type="text/css">
	.st0{fill:#333333;}
</style>
<g id="XMLID_237_">
	<path id="XMLID_241_" class="st0" d="M-488,378c-1-1-2.7-1-3.7,0l-19.2,19.2l-19.2-19.2c-1-1-2.7-1-3.7,0c-1,1-1,2.7,0,3.7
		l19.2,19.2l-19.2,19.2c-1,1-1,2.7,0,3.7c1,1,2.7,1,3.7,0l19.2-19.2l19.2,19.2c1,1,2.7,1,3.7,0c1-1,1-2.7,0-3.7l-19.2-19.2
		l19.2-19.2C-487,380.7-487,379.1-488,378z"/>
	<path id="XMLID_238_" class="st0" d="M-471.4,361.4C-482,350.8-496,345-511,345c-15,0-29,5.8-39.6,16.4C-561.2,372-567,386-567,401
		c0,15,5.8,29,16.4,39.6C-540,451.2-526,457-511,457c15,0,29-5.8,39.6-16.4C-460.8,430-455,416-455,401S-460.8,372-471.4,361.4z
		 M-475.1,436.9c-9.6,9.6-22.3,14.9-35.9,14.9c-13.6,0-26.3-5.3-35.9-14.9c-9.6-9.6-14.9-22.3-14.9-35.9c0-13.6,5.3-26.3,14.9-35.9
		c9.6-9.6,22.3-14.9,35.9-14.9c13.6,0,26.3,5.3,35.9,14.9c9.6,9.6,14.9,22.3,14.9,35.9S-465.5,427.3-475.1,436.9z"/>
</g>
</svg>
