<?xml version="1.0" encoding="utf-8"?>
<!-- Generator: Adobe Illustrator 19.0.0, SVG Export Plug-In . SVG Version: 6.00 Build 0)  -->
<svg version="1.1" id="图层_1" xmlns="http://www.w3.org/2000/svg" xmlns:xlink="http://www.w3.org/1999/xlink" x="0px" y="0px"
	 viewBox="-575 337 128 128" style="enable-background:new -575 337 128 128;" xml:space="preserve">
<style type="text/css">
	.st0{fill:#E63832;}
	.st1{fill:#FFFFFF;}
</style>
<path class="st0" d="M-471.4,361.4C-482,350.8-496,345-511,345s-29,5.8-39.6,16.4C-561.2,372-567,386-567,401s5.8,29,16.4,39.6
	C-540,451.2-526,457-511,457s29-5.8,39.6-16.4C-460.8,430-455,416-455,401S-460.8,372-471.4,361.4z"/>
<path id="XMLID_1_" class="st1" d="M-488,378c-1-1-2.7-1-3.7,0l-19.2,19.2l-19.2-19.2c-1-1-2.7-1-3.7,0s-1,2.7,0,3.7l19.2,19.2
	l-19.2,19.2c-1,1-1,2.7,0,3.7s2.7,1,3.7,0l19.2-19.2l19.2,19.2c1,1,2.7,1,3.7,0s1-2.7,0-3.7l-19.2-19.2l19.2-19.2
	C-487,380.7-487,379.1-488,378z"/>
</svg>
