<?xml version="1.0" encoding="utf-8"?>
<!-- Generator: Adobe Illustrator 19.0.0, SVG Export Plug-In . SVG Version: 6.00 Build 0)  -->
<svg version="1.1" id="图层_1" xmlns="http://www.w3.org/2000/svg" xmlns:xlink="http://www.w3.org/1999/xlink" x="0px" y="0px"
	 viewBox="-575 337 128 128" style="enable-background:new -575 337 128 128;" xml:space="preserve">
<style type="text/css">
	.st0{fill:#333333;}
</style>
<path id="XMLID_96_" class="st0" d="M-481,360l-49.6,48.4v18.6h18.6l48.4-49.6L-481,360z M-526.4,410.3l46-44.4l4.2,4.2l-46.3,46.3
	l-3.9,3.9V410.3z M-513.2,422.3h-9.4l3-3l46.3-46.3l4.3,4.3L-513.2,422.3z"/>
<path id="XMLID_95_" class="st0" d="M-472.6,427.5c0,14.2-6.1,20.3-20.2,20.3h-47.8c-14.1,0-20.4-6.1-20.4-20.3v-36.9
	c0-14.2,6.3-20.3,20.4-20.3h23.7v-4.6h-26c-14.1,0-22.5,8.5-22.5,22.6v41.6c0,14.2,8.4,22.6,22.5,22.6h52.5
	c14.1,0,22.5-8.5,22.5-22.6v-26.3h-4.6V427.5L-472.6,427.5z"/>
<path id="XMLID_94_" class="st0" d="M-472.8,352l-3.5,3.5l17.1,17.1l3.5-3.5L-472.8,352z"/>
</svg>
