<?xml version="1.0" encoding="utf-8"?>
<!-- Generator: Adobe Illustrator 19.0.0, SVG Export Plug-In . SVG Version: 6.00 Build 0)  -->
<svg version="1.1" id="图层_1" xmlns="http://www.w3.org/2000/svg" xmlns:xlink="http://www.w3.org/1999/xlink" x="0px" y="0px"
	 viewBox="-575 337 128 128" style="enable-background:new -575 337 128 128;" xml:space="preserve">
<style type="text/css">
	.st0{fill:#333333;}
</style>
<path id="XMLID_146_" class="st0" d="M-457.9,394.2c-2.6-4.4-6.7-7.6-11.6-8.9l0,0c-1.5-0.4-3.1-0.6-4.9-0.6l-13.8-0.1l0.1-0.6
	c1.6-7.5,1.9-19,1.9-25.2c0-7.5-6.1-13.5-13.5-13.5c-7.5,0-13.5,6.1-13.5,13.5v2.8c0,15.8-12.8,28.6-28.6,28.6h-14
	c-5.9,0-10.7,4.8-10.7,10.7v44.9c0,5.9,4.8,10.7,10.7,10.7h13.6h0.4h0.9l0,0l58,0c0.2,0,0.3,0,0.5,0c4.7-0.2,9-2.8,11.3-6.7
	c0.1-0.1,0.1-0.2,0.1-0.3c0.1-0.3,12.6-31.6,15.1-40.8C-454.7,403.8-455.3,398.7-457.9,394.2z M-562.1,446V401
	c0-3.4,2.8-6.1,6.1-6.1h11.8v57.2H-556C-559.3,452.1-562.1,449.3-562.1,446z M-460.4,407.6c-2.2,8.3-13.5,36.9-14.8,40.1
	c-1.7,2.7-4.5,4.3-7.7,4.3c-0.1,0-0.3,0-0.4,0l-56.3,0v-57.3l0.5,0c17.1-1.4,30.4-15.9,30.4-33.1v-2.8c0-4.9,4-8.9,8.9-8.9
	s8.9,4,8.9,8.9c0,12.7-1,22.9-2.7,27.3c-0.3,0.7-0.2,1.5,0.3,2.1c0.4,0.6,1.1,1,1.9,1l16.9,0.1c1.5,0,2.7,0.1,3.8,0.4
	C-463,391.8-458.3,399.8-460.4,407.6z"/>
</svg>
