<?xml version="1.0" encoding="utf-8"?>
<!-- Generator: Adobe Illustrator 19.0.0, SVG Export Plug-In . SVG Version: 6.00 Build 0)  -->
<svg version="1.1" id="图层_1" xmlns="http://www.w3.org/2000/svg" xmlns:xlink="http://www.w3.org/1999/xlink" x="0px" y="0px"
	 viewBox="-575 337 128 128" style="enable-background:new -575 337 128 128;" xml:space="preserve">
<style type="text/css">
	.st0{fill:#999999;}
</style>
<path id="XMLID_441_" class="st0" d="M-458.6,447.8l-0.7-0.8h0l-30.4-30.6l0.3-0.3c6.1-7.6,9.4-16.2,9.7-25.6
	c0.2-5.7-0.6-11.3-2.7-16.8c-1.9-5.4-4.9-10.2-8.8-14.3c-3.3-3.7-7.2-6.7-11.6-8.9c-4.4-2.3-9-3.8-13.9-4.5
	c-1.8-0.2-3.7-0.4-5.7-0.4c0,0,0,0,0,0c-4.7,0-9.3,0.8-13.7,2.3c-4.4,1.5-8.5,3.8-12.1,6.7c-4.3,3.2-7.8,7.2-10.6,11.8
	c-2.8,4.6-4.6,9.6-5.4,14.9c-0.6,3.3-0.8,6.6-0.6,9.9c0.2,3.3,0.8,6.6,1.7,9.8c0.9,3.2,2.2,6.2,3.9,9c3.3,6,8.1,11,13.8,14.7
	c5.2,3.5,11.3,5.7,17.5,6.4c0.9,0.2,1.9,0.3,2.8,0.4c9.7,0.7,19.4-2,27.3-7.7l0.3-0.3l31.1,31.5l0.6,0.5c0.5,0.4,1,0.7,1.5,0.9
	c0.6,0.2,1.2,0.3,1.8,0.3c0,0,0,0,0,0c1.4,0,2.7-0.5,3.7-1.5c1-1,1.6-2.3,1.5-3.7C-457.2,450-457.7,448.8-458.6,447.8z
	 M-507.6,422.9c-2.7,1.2-5.5,2-8.3,2.5c-2.1,0.4-4.1,0.5-6.2,0.5c-3.4,0-6.8-0.5-10.1-1.4c-5.1-1.4-9.9-4-14-7.5
	c-4.1-3.4-7.4-7.8-9.5-12.7c-2.6-5.4-3.8-11.3-3.5-17.6c0.2-6.1,2-12,5.1-17.3c2.7-4.7,6.5-8.8,10.9-11.9c4.4-3.1,9.6-5.2,15-6
	l0.8-0.1c0.4-0.1,0.8-0.1,1.2-0.1c6.7-0.8,13.5,0.3,19.7,3.2c2.9,1.4,5.6,3.1,8,5.1c4.9,4.1,8.7,9.4,10.9,15.4
	c1.9,4.8,2.8,10.1,2.5,15.2c-0.2,5.3-1.5,10.3-3.9,15c-1.3,2.6-2.9,5.1-4.7,7.3C-497.5,417-502.3,420.5-507.6,422.9z"/>
</svg>
