<?xml version="1.0" encoding="utf-8"?>
<!-- Generator: Adobe Illustrator 19.0.0, SVG Export Plug-In . SVG Version: 6.00 Build 0)  -->
<svg version="1.1" id="图层_1" xmlns="http://www.w3.org/2000/svg" xmlns:xlink="http://www.w3.org/1999/xlink" x="0px" y="0px"
	 viewBox="-575 337 128 128" style="enable-background:new -575 337 128 128;" xml:space="preserve">
<style type="text/css">
	.st0{fill:#75C4EF;}
</style>
<g>
	<path class="st0" d="M-511,455.6c-19.4,0-35.1-15.8-35.1-35.1c0-19.3,15.7-35.1,35.1-35.1s35.1,15.7,35.1,35.1
		C-475.9,439.9-491.7,455.6-511,455.6L-511,455.6z M-511,392.3c-15.6,0-28.3,12.7-28.3,28.3c0,15.6,12.7,28.3,28.3,28.3
		c15.6,0,28.3-12.7,28.3-28.3C-482.7,405-495.4,392.3-511,392.3L-511,392.3z M-511,392.3"/>
	<path class="st0" d="M-511.2,390.9c-1.9,0-3.4-1.5-3.4-3.4v-36.3c0-1.9,1.5-3.4,3.4-3.4c1.9,0,3.4,1.5,3.4,3.4v36.3
		C-507.8,389.3-509.3,390.9-511.2,390.9L-511.2,390.9z M-511.2,390.9"/>
	<path class="st0" d="M-491.6,372.7c-0.9,0-1.7-0.3-2.4-1l-17.2-17.2l-17.2,17.2c-1.3,1.3-3.5,1.3-4.8,0c-1.3-1.3-1.3-3.5,0-4.8
		l19.6-19.6c1.3-1.3,3.6-1.3,4.8,0l19.6,19.6c1.3,1.3,1.3,3.5,0,4.8C-489.9,372.4-490.7,372.7-491.6,372.7L-491.6,372.7z
		 M-491.6,372.7"/>
</g>
</svg>
