<?xml version="1.0" encoding="utf-8"?>
<!-- Generator: Adobe Illustrator 19.0.0, SVG Export Plug-In . SVG Version: 6.00 Build 0)  -->
<svg version="1.1" id="图层_1" xmlns="http://www.w3.org/2000/svg" xmlns:xlink="http://www.w3.org/1999/xlink" x="0px" y="0px"
	 viewBox="-575 337 128 128" style="enable-background:new -575 337 128 128;" xml:space="preserve">
<style type="text/css">
	.st0{fill:#999999;}
</style>
<path id="XMLID_159_" class="st0" d="M-466.1,418.8c0.5,0.4,1,0.8,1.5,1.2c3.3,2.8,4.7,4.3,4.8,4.5h0v0v0c0,0,0.3,0.3,0.6,0.7
	c0.2,0.2,0.3,0.4,0.4,0.5c0.1,0.1,0.1,0.2,0.2,0.2c0.1,0.1,0.2,0.2,0.2,0.3l0.7,1v0.1c1.4,2.8,0.4,6.5-0.5,8.4
	c-1.5,3.3-4.4,6.6-6.6,8.7c-4.4,4.1-10.5,8.8-18.1,8.8c-0.8,0-1.6-0.1-2.4-0.2c-5.5-0.7-14-4-23.2-9.1c-10-5.5-19.6-12.5-27.1-19.6
	c-7.5-7.1-14.9-16.3-20.7-25.7c-5.4-8.8-8.9-16.8-9.7-22.1c-0.5-3.5,0.4-7.3,2.5-11.2c1.9-3.4,4.7-6.7,8.1-9.5
	c0.2-0.2,0.4-0.3,0.6-0.5c2.6-2.2,4.9-4.1,8.7-5.5c1.3-0.6,2.6-0.8,3.8-0.8c1.1,0,2.3,0.2,3.4,0.7l0.1,0c0.5,0.2,1.3,0.7,1.6,0.8
	c0.7,0.3,4.2,2.2,8.2,7.4c1.3,1.7,3.2,4.5,4.7,7c2.4,4.1,4,7.7,4.1,7.9l0,0.1l0.3,0.9c1,2.6,0.4,5.3-1.6,7.2
	c-0.1,0.1-0.3,0.3-0.3,0.3l-0.2,0.2l-0.1,0.1c-0.1,0.1-0.3,0.2-0.4,0.3c-0.3,0.3-0.4,0.3-0.5,0.4l-0.1,0.1c-1.3,0.9-1.8,1.1-2.3,1.4
	c-0.3,0.2-0.7,0.4-1.4,0.8l0,0c-1.3,0.8-2.5,1.3-3.8,1.8c-1,0.4-2.2,0.9-3.6,1.5c-2,1-2.1,3.8-1.7,4.7c2.5,5.5,6.9,11.1,14.3,18.1
	c6.5,6.2,12.9,10.1,18.3,13.2c0.7,0.4,1.3,0.6,2,0.6c1.9,0,3.7-1.5,4.6-3c0.6-1.1,1.2-2.3,1.7-3.4c0.4-0.8,0.8-1.7,1.2-2.3l0,0
	c1-1.7,1.7-2.8,2.1-3.4c0.3-0.4,0.6-0.9,0.9-1.2c0.8-1.2,2.1-2.1,3.5-2.6c0.8-0.3,1.7-0.4,2.6-0.4c1.2,0,2.3,0.2,3.2,0.7l2.4,1.2
	l0,0c0.2,0.1,0.4,0.2,0.6,0.3c0.3,0.2,0.6,0.4,1.1,0.7c0.8,0.5,2.2,1.4,3.8,2.5c0.3,0.2,0.6,0.4,0.8,0.6 M-487.1,414.3
	c-0.2,0.2-1,1.3-2.3,3.7c-0.3,0.6-0.7,1.4-1.1,2.2c-0.5,1.1-1.2,2.3-1.9,3.5c-1.5,2.7-4.8,5.4-8.7,5.4c-1.5,0-3-0.4-4.3-1.2
	c-5.7-3.2-12.4-7.4-19.2-13.9c-7.9-7.5-12.6-13.5-15.3-19.6c-0.7-1.6-0.8-3.7-0.3-5.7c0.6-2.4,2.1-4.3,4.2-5.3
	c1.6-0.8,2.8-1.3,3.9-1.7c1.2-0.5,2.1-0.9,3.1-1.4c0.9-0.5,1.3-0.8,1.7-1c0.4-0.2,0.8-0.4,1.8-1.1c0.1-0.1,0.1-0.1,0.2-0.2
	c0.2-0.2,0.4-0.3,0.5-0.4c0.1-0.1,0.1-0.1,0.2-0.2l0,0c0.6-0.6,0.8-1.3,0.5-2.1l-0.1-0.1l-0.3-0.8c-0.3-0.6-1.7-3.7-3.8-7.3
	c-1.1-1.9-2.8-4.4-4.4-6.5c-3.3-4.4-6.2-5.9-6.4-6l-0.1-0.1c-0.3-0.2-1-0.5-1.3-0.7c-0.5-0.2-1-0.3-1.5-0.3c-0.6,0-1.2,0.2-2,0.5
	l-0.1,0c-3.1,1.1-4.9,2.6-7.4,4.7c-0.2,0.2-0.4,0.3-0.6,0.5c-6.1,5-9.6,11.4-8.9,16.4c0.6,4.6,4,12.2,9,20.3
	c5.6,9.1,12.7,17.9,19.9,24.8c7.2,6.9,16.5,13.6,26.1,18.9c8.6,4.7,16.6,7.9,21.4,8.6c0.6,0.1,1.2,0.1,1.8,0.1
	c4.6,0,9.2-2.3,14.8-7.5c1.8-1.6,4.3-4.5,5.6-7.2c0.7-1.6,0.9-3.6,0.4-4.3l-0.4-0.6v0l0-0.1c-0.2-0.2-0.6-0.7-0.9-1.1
	c0,0-1.2-1.4-4.2-3.9c-2.9-2.4-6.1-4.8-8.5-6.4c-2.7-1.8-4.7-3-5.1-3.3l-2.3-1.1c-0.1-0.1-0.5-0.2-1.1-0.2c-0.4,0-0.8,0.1-1,0.1
	c-0.5,0.2-1.1,0.7-1.2,0.9L-487.1,414.3z"/>
</svg>
