<?xml version="1.0" encoding="utf-8"?>
<!-- Generator: Adobe Illustrator 19.0.0, SVG Export Plug-In . SVG Version: 6.00 Build 0)  -->
<svg version="1.1" id="图层_1" xmlns="http://www.w3.org/2000/svg" xmlns:xlink="http://www.w3.org/1999/xlink" x="0px" y="0px"
	 viewBox="-575 337 128 128" style="enable-background:new -575 337 128 128;" xml:space="preserve">
<style type="text/css">
	.st0{fill:#333333;}
</style>
<path id="XMLID_133_" class="st0" d="M-477.4,417.5c-1-1-2.7-1-3.7,0c-1,1-1,2.7,0,3.7c8,8,15,21.2,15,32.5c0,1.5,1.2,2.6,2.6,2.6
	c1.5,0,2.6-1.2,2.6-2.6C-460.9,441.1-468.4,426.5-477.4,417.5z M-511,345.6c-17.5,0-31.7,14.2-31.7,31.7c0,12.5,7.2,23.3,17.7,28.4
	c-7.3,2.2-14.1,6.3-19.6,11.8c-9,9-16.6,23.5-16.6,36.2c0,1.5,1.2,2.6,2.6,2.6c1.5,0,2.6-1.2,2.6-2.6c0-11.3,7-24.5,15-32.5
	c7.7-7.7,17.8-12,28.6-12.3c0.4,0,0.8,0,1.2,0c17.5,0,31.7-14.2,31.7-31.7C-479.3,359.8-493.5,345.6-511,345.6z M-510.6,403.7
	c-0.1,0-0.3,0-0.4,0c-0.4,0-0.8,0-1.2,0c-14-0.6-25.2-12.2-25.2-26.4c0-14.6,11.8-26.4,26.4-26.4s26.4,11.8,26.4,26.4
	C-484.6,391.7-496.2,403.4-510.6,403.7z"/>
</svg>
