<?xml version="1.0" encoding="utf-8"?>
<!-- Generator: Adobe Illustrator 19.0.0, SVG Export Plug-In . SVG Version: 6.00 Build 0)  -->
<svg version="1.1" id="图层_1" xmlns="http://www.w3.org/2000/svg" xmlns:xlink="http://www.w3.org/1999/xlink" x="0px" y="0px"
	 viewBox="-575 337 128 128" style="enable-background:new -575 337 128 128;" xml:space="preserve">
<style type="text/css">
	.st0{fill:#ffffff;}
</style>
<path id="XMLID_172_" class="st0" d="M-529.9,347.2c0-1.2-1-2.2-2.2-2.2h-32.3c-1.2,0-2.2,1-2.2,2.2v32.3c0,1.2,1,2.2,2.2,2.2h32.3
	c1.2,0,2.2-1,2.2-2.2V347.2z M-533.8,375.6c0,1.2-1,2.2-2.2,2.2h-24.6c-1.2,0-2.2-1-2.2-2.2V351c0-1.2,1-2.2,2.2-2.2h24.6
	c1.2,0,2.2,1,2.2,2.2V375.6z M-455.7,347.2c0-1.2-1-2.2-2.2-2.2h-32.3c-1.2,0-2.2,1-2.2,2.2v32.3c0,1.2,1,2.2,2.2,2.2h32.3
	c1.2,0,2.2-1,2.2-2.2L-455.7,347.2L-455.7,347.2z M-459.6,375.6c0,1.2-1,2.2-2.2,2.2h-24.6c-1.2,0-2.2-1-2.2-2.2V351
	c0-1.2,1-2.2,2.2-2.2h24.6c1.2,0,2.2,1,2.2,2.2L-459.6,375.6L-459.6,375.6z M-566.6,454.8c0,1.2,1,2.2,2.2,2.2h32.3
	c1.2,0,2.2-1,2.2-2.2v-32.3c0-1.2-1-2.2-2.2-2.2h-32.3c-1.2,0-2.2,1-2.2,2.2V454.8z M-562.7,426.4c0-1.2,1-2.2,2.2-2.2h24.6
	c1.2,0,2.2,1,2.2,2.2V451c0,1.2-1,2.2-2.2,2.2h-24.6c-1.2,0-2.2-1-2.2-2.2L-562.7,426.4L-562.7,426.4z M-565.9,400.4
	c0-1.1,1-1.9,2.2-1.9h106.1c1.2,0,2.2,0.9,2.2,1.9s-1,1.9-2.2,1.9h-106.1C-564.9,402.4-565.9,401.5-565.9,400.4z M-513.1,347.2
	c0-1.2,0.9-2.2,1.9-2.2s1.9,1,1.9,2.2v32.3c0,1.2-0.9,2.2-1.9,2.2s-1.9-1-1.9-2.2V347.2z M-513.4,430.2c0-1.1,1-1.9,2.2-1.9h53.2
	c1.2,0,2.2,0.9,2.2,1.9s-1,1.9-2.2,1.9h-53.2C-512.4,432.1-513.4,431.2-513.4,430.2z M-512.3,454.9c0-1.1,1-1.9,2.2-1.9h50.9
	c1.2,0,2.2,0.9,2.2,1.9s-1,1.9-2.2,1.9h-50.9C-511.3,456.8-512.3,456-512.3,454.9z"/>
</svg>
