<?xml version="1.0" encoding="utf-8"?>
<!-- Generator: Adobe Illustrator 19.0.0, SVG Export Plug-In . SVG Version: 6.00 Build 0)  -->
<svg version="1.1" id="图层_1" xmlns="http://www.w3.org/2000/svg" xmlns:xlink="http://www.w3.org/1999/xlink" x="0px" y="0px"
	 viewBox="-575 337 128 128" style="enable-background:new -575 337 128 128;" xml:space="preserve">
<style type="text/css">
	.st0{fill:#FFD200;}
	.st1{fill:#333333;}
</style>
<path class="st0" d="M-511,345.1c-30.8,0-55.9,25.1-55.9,55.9s25.1,55.9,55.9,55.9s55.9-25.1,55.9-55.9S-480.2,345.1-511,345.1z"/>
<path id="XMLID_263_" class="st1" d="M-519.3,420.7c-0.6,0-1.2-0.2-1.7-0.7l-15.5-15.5c-1-1-1-2.5,0-3.4c1-1,2.5-1,3.4,0l15.5,15.5
	c1,1,1,2.5,0,3.4C-518.1,420.5-518.7,420.7-519.3,420.7L-519.3,420.7L-519.3,420.7z"/>
<path id="XMLID_262_" class="st1" d="M-519.3,420.7c-0.6,0-1.2-0.2-1.7-0.7c-1-1-1-2.5,0-3.4l35-35c1-1,2.5-1,3.4,0c1,1,1,2.5,0,3.4
	l-35,35C-518.1,420.5-518.7,420.7-519.3,420.7L-519.3,420.7L-519.3,420.7z"/>
</svg>
