<?xml version="1.0" encoding="utf-8"?>
<!-- Generator: Adobe Illustrator 19.0.0, SVG Export Plug-In . SVG Version: 6.00 Build 0)  -->
<svg version="1.1" id="图层_1" xmlns="http://www.w3.org/2000/svg" xmlns:xlink="http://www.w3.org/1999/xlink" x="0px" y="0px"
	 viewBox="-575 337 128 128" style="enable-background:new -575 337 128 128;" xml:space="preserve">
<style type="text/css">
	.st0{fill:#333333;}
</style>
<path class="st0" d="M-456.6,359.7l-20.1,80.8c-0.5,1.9-2.4,3.1-4.3,2.6l-13-3.2v17c0,2-1.6,3.5-3.5,3.5H-556c-2,0-3.5-1.6-3.5-3.5
	v-83.2c0-2,1.6-3.5,3.5-3.5h29.3l6.5-26.2c0.5-1.9,2.4-3.1,4.3-2.6l56.7,14.1C-457.3,355.9-456.1,357.8-456.6,359.7L-456.6,359.7z
	 M-494,373.5V427l7.4,1.8l15.9-63.6l-39.5-9.9l-3.6,14.6h16.4C-495.6,370-494,371.6-494,373.5L-494,373.5z M-554.3,375.3V455h54.9
	v-79.7H-554.3z M-515.5,346.8l-5.8,23.2h5.5l3.3-13.3c0.5-1.9,2.4-3.1,4.3-2.6l36.1,9c1.9,0.5,3.1,2.4,2.6,4.3l-15,60.1
	c-0.5,1.9-2.4,3.1-4.3,2.6l-5.3-1.3v5.5l12.6,3.1l19.3-77.3L-515.5,346.8L-515.5,346.8z M-508.2,449.7h-37.2c-2,0-3.5-1.6-3.5-3.5
	v-62c0-2,1.6-3.5,3.5-3.5h37.2c2,0,3.5,1.6,3.5,3.5v62C-504.7,448.1-506.2,449.7-508.2,449.7z M-506.4,382.4h-40.7v65.5h40.7
	C-506.4,447.9-506.4,382.4-506.4,382.4z M-542.8,385.9h3.7c0.4,0,0.7,0.4,0.7,0.9c0,0.5-0.3,0.9-0.7,0.9h-3.1v8.9
	c0,0.5-0.3,0.9-0.7,0.9c-0.4,0-0.7-0.4-0.7-0.9v-9.7C-543.6,386.3-543.2,385.9-542.8,385.9L-542.8,385.9z M-529.2,399.3
	c1.3-1.3,3.4-1.3,4.7,0l8.2,11.7c1.3,1.3,1.3,3.4,0,4.8l-8.2,11.7c-1.3,1.3-3.4,1.3-4.7,0l-8.2-11.7c-1.3-1.3-1.3-3.4,0-4.8
	C-537.4,411-529.2,399.3-529.2,399.3z M-526.8,423.1l6.2-9.7l-6.2-9.7l-6.2,9.7L-526.8,423.1z M-534.8,387.7h-0.9
	c-0.5,0-0.9-0.4-0.9-0.9c0-0.5,0.4-0.9,0.9-0.9h0.9c0.5,0,0.9,0.4,0.9,0.9C-533.9,387.3-534.3,387.7-534.8,387.7z"/>
</svg>
