<?xml version="1.0" encoding="utf-8"?>
<!-- Generator: Adobe Illustrator 19.0.0, SVG Export Plug-In . SVG Version: 6.00 Build 0)  -->
<svg version="1.1" id="图层_1" xmlns="http://www.w3.org/2000/svg" xmlns:xlink="http://www.w3.org/1999/xlink" x="0px" y="0px"
	 viewBox="-575 337 128 128" style="enable-background:new -575 337 128 128;" xml:space="preserve">
<style type="text/css">
	.st0{fill:#333333;}
</style>
<g>
	<path class="st0" d="M-550,374.8c1.8,0,3.3-1.5,3.3-3.3v-7.2c0-0.9,0.8-1.6,1.7-1.6h68.2c0.9,0,1.5,0.7,1.5,1.6v7.2
		c0,1.8,1.5,3.3,3.3,3.3c1.8,0,3.3-1.5,3.3-3.3v-7.2c0-0.1,0-0.1,0-0.2c-0.1-4.4-3.7-8-8.1-8H-545c-4.5,0-8.1,3.6-8.2,8
		c0,0.1-0.1,0.1-0.1,0.2v7.2C-553.3,373.3-551.8,374.8-550,374.8L-550,374.8z M-550,374.8"/>
	<path class="st0" d="M-468.7,437.3c0-0.1,0-0.2,0-0.2v-7.2c0-1.8-1.5-3.3-3.3-3.3c-1.8,0-3.3,1.5-3.3,3.3v7.2
		c0,0.1,0.1,0.1,0.1,0.2c0,0.1,0,0.2,0,0.3c0,0.9-0.7,1.6-1.6,1.6H-545c-0.9,0-1.6-0.8-1.6-1.6c0-0.1-0.1-0.2-0.1-0.2
		c0-0.1,0-0.2,0-0.2v-7.2c0-1.8-1.5-3.3-3.3-3.3c-1.8,0-3.3,1.5-3.3,3.3v7.2c0,0.1,0.1,0.1,0.1,0.2c0,0.1,0,0.2,0,0.3
		c0,4.5,3.7,8.2,8.2,8.2h68.2c4.5,0,8.2-3.7,8.2-8.2C-468.7,437.5-468.7,437.4-468.7,437.3L-468.7,437.3z M-468.7,437.3"/>
	<path class="st0" d="M-549.1,400.9c0,3.3,2.6,5.9,5.9,5.9c3.2,0,5.9-2.6,5.9-5.9c0-3.3-2.6-5.9-5.9-5.9
		C-546.5,395-549.1,397.6-549.1,400.9L-549.1,400.9z M-549.1,400.9"/>
	<path class="st0" d="M-527.6,400.9c0,3.3,2.6,5.9,5.9,5.9c3.3,0,5.9-2.6,5.9-5.9c0-3.3-2.6-5.9-5.9-5.9
		C-525,395-527.6,397.6-527.6,400.9L-527.6,400.9z M-527.6,400.9"/>
	<path class="st0" d="M-506.1,400.9c0,3.3,2.6,5.9,5.9,5.9s5.9-2.6,5.9-5.9c0-3.3-2.6-5.9-5.9-5.9S-506.1,397.6-506.1,400.9
		L-506.1,400.9z M-506.1,400.9"/>
	<path class="st0" d="M-484.6,400.9c0,3.3,2.6,5.9,5.9,5.9c3.3,0,5.9-2.6,5.9-5.9c0-3.3-2.6-5.9-5.9-5.9
		C-482,395-484.6,397.6-484.6,400.9L-484.6,400.9z M-484.6,400.9"/>
</g>
</svg>
